<?xml version="1.0" encoding="iso-8859-1"?>
<!-- Generator: Adobe Illustrator 18.0.0, SVG Export Plug-In . SVG Version: 6.00 Build 0)  -->
<!DOCTYPE svg PUBLIC "-//W3C//DTD SVG 1.1//EN" "http://www.w3.org/Graphics/SVG/1.1/DTD/svg11.dtd">
<svg version="1.1" id="Capa_1" xmlns="http://www.w3.org/2000/svg" xmlns:xlink="http://www.w3.org/1999/xlink" x="0px" y="0px"
	 viewBox="0 0 264.047 264.047" style="enable-background:new 0 0 264.047 264.047;" xml:space="preserve">
<g>
	<path d="M229.048,146.136c-1.407-1.406-3.093-2.089-5.083-2.089h-79.942v120h72.421c8.283,0,14.579-7.108,14.579-15.392v-97.323
		C231.023,149.343,230.455,147.543,229.048,146.136z"/>
	<path d="M120.023,144.047H40.747c-4.143,0-7.724,3.144-7.724,7.286v97.322c0,8.283,6.962,15.392,15.245,15.392h71.755V144.047z"/>
</g>
<g>
	<path d="M120.023,66.047H48.38c-8.297,0-15.356,6.726-15.356,15.021v34.957c0,8.296,7.06,15.022,15.356,15.022h71.644V66.047z"/>
	<path d="M216.333,66.047h-72.31v65h72.31c8.297,0,14.69-6.726,14.69-15.022V81.068C231.023,72.772,224.63,66.047,216.333,66.047z"
		/>
</g>
<path d="M172.258,6.204C166.94,2.088,161.631,0,156.478,0c-10.301,0-18.388,7.643-24.104,22.73C126.658,7.643,118.572,0,108.271,0
	c-5.153,0-10.463,2.088-15.78,6.204c-10.12,7.834-11.195,15.99-10.316,21.453c3.295,20.47,40.313,34.526,47.7,37.137
	c0.814,0.288,1.659,0.429,2.498,0.429h0.001h0.001c0.839,0,1.684-0.141,2.498-0.429c7.387-2.61,44.405-16.668,47.7-37.137
	C183.452,22.194,182.377,14.039,172.258,6.204z M115.455,41.846c-16.092-8.854-18.207-14.925-18.472-16.574
	c-0.338-2.11,1.239-4.535,4.689-7.206c2.591-2.006,4.872-3.066,6.599-3.066c3.209,0,8.097,5.118,12.193,19.483
	c1.099,3.852,1.953,7.736,2.605,11.222C120.66,44.576,118.062,43.28,115.455,41.846z M167.764,25.271
	c-1.042,6.497-13.751,14.669-26.14,20.505C144.563,30.401,150.249,15,156.478,15c1.727,0,4.008,1.06,6.598,3.066
	C166.525,20.736,168.103,23.16,167.764,25.271z"/>
<g>
</svg>
